<svg width="900" height="900" viewBox="0 0 900 900" fill="none" xmlns="http://www.w3.org/2000/svg">
<g id="lock 1">
<path id="lock" d="M270.531 783.899C240.516 779.466 215.569 757.404 207.323 728C205.596 721.842 205.5 713.579 205.5 571C205.5 448.533 205.75 419.476 206.841 415C207.579 411.975 210.446 404.793 213.212 399.04C217.662 389.784 219.292 387.539 227.37 379.54C233.365 373.604 239.101 369.036 244.077 366.236C253.502 360.932 268.212 357 278.628 357H286L286.01 324.25C286.028 269.36 288.81 249.556 301.151 216.5C324.496 153.967 372.229 117.781 437.5 113.134C489.027 109.466 531.795 122.798 563.8 152.505C591.039 177.787 609.105 214.677 613.974 254.957C615.978 271.538 617.252 306.895 616.742 331.75L616.223 357H621.983C630.203 357 646.011 361.28 653.843 365.626C672.267 375.849 685.997 393.101 691.711 413.207C693.394 419.126 693.5 428.464 693.5 570.5C693.5 712.301 693.391 721.896 691.716 728C687.652 742.81 678.304 757.378 666.702 766.983C659.533 772.918 645.387 780.151 636 782.681C629.934 784.316 617.717 784.445 453 784.607C355.28 784.703 273.836 784.387 270.531 783.899ZM490 674.184C490 673.735 489.552 670.922 489.006 667.934C488.037 662.644 483.966 637.07 477.952 598.5C476.323 588.05 474.759 578.375 474.477 577C474.027 574.803 474.624 574.157 479.404 571.669C485.985 568.242 495.32 559.115 499.762 551.763C504.859 543.326 507.146 535.625 507.709 525C508.629 507.64 503.094 493.02 491.037 480.963C468.296 458.222 431.563 458.261 408.981 481.05C386.329 503.911 386.508 539.745 409.388 562.606C413.3 566.515 418.464 570.713 420.865 571.935C425.185 574.135 425.224 574.201 424.591 578.329C423.759 583.75 414.709 635.809 410.935 656.886C409.321 665.899 408 673.661 408 674.136C408 674.611 426.45 675 449 675C471.55 675 490 674.633 490 674.184ZM557.417 336.463C558.021 314.049 556.663 270.605 554.988 258.747C550.137 224.409 529.461 194.345 501.528 181.013C473.914 167.834 430.209 168.319 402.784 182.109C375.991 195.58 359.976 218.702 350.027 258.279C345.599 275.895 344.295 297.382 344.843 343.755L345 357.009L450.939 356.755L556.878 356.5L557.417 336.463Z" fill="#0049AF"/>
<path id="0" d="M555.98 382.324C550.438 382.324 545.711 384.301 541.801 388.211C537.891 392.121 535.957 396.762 535.957 402.133V431.266C535.957 436.637 537.891 441.277 541.801 445.188C545.711 449.098 550.438 451.074 555.98 451.074C561.352 451.074 565.992 449.141 569.902 445.23C573.812 441.32 575.746 436.68 575.746 431.309V402.176C575.746 396.762 573.77 392.121 569.859 388.211C565.949 384.301 561.309 382.367 555.938 382.367L555.98 382.324ZM555.852 444.07C552.328 444.07 549.363 442.824 546.914 440.332C544.465 437.84 543.262 434.832 543.262 431.309V402.176C543.262 398.652 544.465 395.645 546.914 393.152C549.363 390.66 552.328 389.414 555.852 389.414C559.375 389.414 562.34 390.66 564.789 393.152C567.238 395.645 568.441 398.652 568.441 402.176V431.309C568.441 434.832 567.238 437.84 564.789 440.332C562.34 442.824 559.375 444.07 555.852 444.07Z" fill="white"/>
<path id="9" d="M467.344 391.41C467.344 385.352 465.152 380.195 460.812 375.898C456.473 371.602 451.23 369.453 445.129 369.453C439.027 369.453 433.785 371.602 429.445 375.898C425.105 380.195 422.914 385.395 422.914 391.453C422.914 397.512 425.062 402.711 429.402 407.008C433.742 411.305 438.941 413.453 445.043 413.453C446.891 413.453 448.609 413.238 450.199 412.852C446.891 418.781 442.422 426.859 436.836 437.043H445.086L464.078 402.711C466.184 399.23 467.258 395.492 467.258 391.453L467.344 391.41ZM430.219 391.539C430.219 387.371 431.68 383.848 434.602 380.926C437.523 378.004 441.004 376.543 445.086 376.543C449.168 376.543 452.648 378.004 455.57 380.926C458.492 383.848 459.953 387.414 459.953 391.582C459.996 393.43 459.609 395.363 458.836 397.383C458.449 398.027 458.234 398.414 458.191 398.543C456.945 400.949 455.141 402.883 452.777 404.301C450.414 405.719 447.836 406.449 445.043 406.449C440.961 406.449 437.438 404.988 434.516 402.066C431.594 399.145 430.133 395.664 430.133 391.582L430.219 391.539Z" fill="white"/>
<path id="4" d="M349.445 432.973V380.293L309.398 440.02H342.141V449H349.445V440.02H355.246V432.973H349.445ZM342.141 404.141V432.973H322.848L342.141 404.141Z" fill="white"/>
</g>
</svg>
