<?xml version="1.0" encoding="UTF-8"?>
<svg xmlns="http://www.w3.org/2000/svg" xmlns:xlink="http://www.w3.org/1999/xlink" width="96pt" height="96pt" viewBox="0 0 96 96" version="1.1">
<g id="surface1">
<path style=" stroke:none;fill-rule:nonzero;fill:rgb(0%,28.627451%,68.627451%);fill-opacity:1;" d="M 28.855469 83.617188 C 25.65625 83.144531 22.992188 80.789062 22.113281 77.652344 C 21.929688 76.996094 21.921875 76.113281 21.921875 60.90625 C 21.921875 47.84375 21.945312 44.742188 22.0625 44.265625 C 22.140625 43.945312 22.449219 43.179688 22.742188 42.5625 C 23.21875 41.578125 23.390625 41.335938 24.253906 40.484375 C 24.890625 39.851562 25.503906 39.363281 26.035156 39.066406 C 27.039062 38.5 28.609375 38.078125 29.71875 38.078125 L 30.507812 38.078125 L 30.507812 34.585938 C 30.507812 28.730469 30.804688 26.621094 32.121094 23.09375 C 34.613281 16.421875 39.703125 12.5625 46.667969 12.066406 C 52.164062 11.675781 56.726562 13.097656 60.136719 16.265625 C 63.042969 18.964844 64.972656 22.898438 65.492188 27.195312 C 65.703125 28.964844 65.839844 32.734375 65.785156 35.386719 L 65.730469 38.078125 L 66.34375 38.078125 C 67.222656 38.078125 68.90625 38.535156 69.742188 39 C 71.707031 40.089844 73.171875 41.929688 73.78125 44.074219 C 73.960938 44.707031 73.972656 45.703125 73.972656 60.851562 C 73.972656 75.980469 73.960938 77.003906 73.78125 77.652344 C 73.347656 79.234375 72.351562 80.785156 71.113281 81.8125 C 70.351562 82.445312 68.839844 83.214844 67.839844 83.484375 C 67.191406 83.660156 65.890625 83.675781 48.320312 83.691406 C 37.898438 83.703125 29.210938 83.667969 28.855469 83.617188 Z M 52.265625 71.914062 C 52.265625 71.863281 52.21875 71.566406 52.160156 71.246094 C 52.058594 70.683594 51.621094 67.953125 50.980469 63.839844 C 50.808594 62.726562 50.640625 61.691406 50.609375 61.546875 C 50.5625 61.3125 50.625 61.242188 51.136719 60.976562 C 51.839844 60.613281 52.835938 59.640625 53.308594 58.855469 C 53.851562 57.953125 54.09375 57.132812 54.15625 56 C 54.253906 54.148438 53.664062 52.589844 52.378906 51.300781 C 49.953125 48.878906 46.035156 48.882812 43.625 51.3125 C 41.207031 53.75 41.226562 57.574219 43.667969 60.011719 C 44.085938 60.429688 44.636719 60.875 44.890625 61.007812 C 45.351562 61.242188 45.355469 61.25 45.289062 61.6875 C 45.199219 62.265625 44.234375 67.820312 43.832031 70.066406 C 43.660156 71.027344 43.519531 71.855469 43.519531 71.90625 C 43.519531 71.957031 45.488281 72 47.894531 72 C 50.296875 72 52.265625 71.960938 52.265625 71.914062 Z M 59.457031 35.890625 C 59.523438 33.5 59.378906 28.863281 59.199219 27.601562 C 58.679688 23.9375 56.476562 20.730469 53.496094 19.308594 C 50.550781 17.902344 45.890625 17.953125 42.964844 19.425781 C 40.105469 20.863281 38.398438 23.328125 37.335938 27.550781 C 36.863281 29.429688 36.726562 31.722656 36.785156 36.667969 L 36.800781 38.082031 L 48.101562 38.054688 L 59.398438 38.027344 Z M 59.457031 35.890625 "/>
<path style=" stroke:none;fill-rule:nonzero;fill:rgb(100%,100%,100%);fill-opacity:1;" d="M 59.304688 40.78125 C 58.714844 40.78125 58.210938 40.992188 57.792969 41.410156 C 57.375 41.828125 57.167969 42.320312 57.167969 42.894531 L 57.167969 46 C 57.167969 46.574219 57.375 47.070312 57.792969 47.488281 C 58.210938 47.902344 58.714844 48.113281 59.304688 48.113281 C 59.878906 48.113281 60.371094 47.910156 60.789062 47.492188 C 61.207031 47.074219 61.414062 46.578125 61.414062 46.007812 L 61.414062 42.898438 C 61.414062 42.320312 61.203125 41.828125 60.785156 41.410156 C 60.367188 40.992188 59.871094 40.785156 59.300781 40.785156 Z M 59.289062 47.367188 C 58.914062 47.367188 58.597656 47.234375 58.335938 46.96875 C 58.078125 46.703125 57.949219 46.382812 57.949219 46.007812 L 57.949219 42.898438 C 57.949219 42.523438 58.078125 42.203125 58.335938 41.9375 C 58.597656 41.671875 58.914062 41.539062 59.289062 41.539062 C 59.667969 41.539062 59.984375 41.671875 60.246094 41.9375 C 60.503906 42.203125 60.632812 42.523438 60.632812 42.898438 L 60.632812 46.007812 C 60.632812 46.382812 60.503906 46.703125 60.246094 46.96875 C 59.984375 47.234375 59.667969 47.367188 59.289062 47.367188 Z M 59.289062 47.367188 "/>
<path style=" stroke:none;fill-rule:nonzero;fill:rgb(100%,100%,100%);fill-opacity:1;" d="M 49.851562 41.75 C 49.851562 41.105469 49.617188 40.554688 49.152344 40.097656 C 48.691406 39.636719 48.132812 39.410156 47.480469 39.410156 C 46.828125 39.410156 46.269531 39.636719 45.808594 40.097656 C 45.34375 40.554688 45.109375 41.109375 45.109375 41.753906 C 45.109375 42.402344 45.339844 42.957031 45.804688 43.414062 C 46.265625 43.871094 46.820312 44.101562 47.472656 44.101562 C 47.667969 44.101562 47.851562 44.078125 48.019531 44.039062 C 47.667969 44.671875 47.191406 45.53125 46.597656 46.617188 L 47.476562 46.617188 L 49.5 42.957031 C 49.726562 42.585938 49.839844 42.1875 49.839844 41.753906 Z M 45.890625 41.765625 C 45.890625 41.320312 46.046875 40.945312 46.359375 40.632812 C 46.667969 40.320312 47.039062 40.164062 47.476562 40.164062 C 47.910156 40.164062 48.28125 40.320312 48.59375 40.632812 C 48.90625 40.945312 49.0625 41.324219 49.0625 41.769531 C 49.066406 41.964844 49.023438 42.171875 48.941406 42.386719 C 48.902344 42.457031 48.878906 42.496094 48.875 42.511719 C 48.742188 42.769531 48.546875 42.972656 48.296875 43.125 C 48.042969 43.277344 47.769531 43.355469 47.472656 43.355469 C 47.035156 43.355469 46.660156 43.199219 46.347656 42.886719 C 46.035156 42.574219 45.878906 42.203125 45.878906 41.769531 Z M 45.890625 41.765625 "/>
<path style=" stroke:none;fill-rule:nonzero;fill:rgb(100%,100%,100%);fill-opacity:1;" d="M 37.273438 46.183594 L 37.273438 40.566406 L 33.003906 46.933594 L 36.496094 46.933594 L 36.496094 47.894531 L 37.273438 47.894531 L 37.273438 46.933594 L 37.894531 46.933594 L 37.894531 46.183594 Z M 36.496094 43.109375 L 36.496094 46.183594 L 34.4375 46.183594 Z M 36.496094 43.109375 "/>
</g>
</svg>
