<svg width="512" height="512" viewBox="0 0 512 512" fill="none" xmlns="http://www.w3.org/2000/svg">
<g id="box 1" clip-path="url(#clip0)">
<path id="Vector" d="M248.768 1.65399L19.499 112.336C16.624 113.724 14.798 116.634 14.798 119.826V392.174C14.798 395.366 16.625 398.276 19.499 399.664L248.768 510.346C253.337 512.552 258.663 512.552 263.232 510.346L492.501 399.664C495.376 398.276 497.202 395.366 497.202 392.174V119.826C497.202 116.634 495.375 113.724 492.501 112.336L263.232 1.65399C258.663 -0.551006 253.337 -0.551006 248.768 1.65399Z" fill="#FFE17D"/>
<path id="Vector_2" d="M16.181 115.273C15.307 116.604 14.798 118.171 14.798 119.826V392.174C14.798 395.366 16.625 398.276 19.499 399.664L248.768 510.345C251.052 511.448 253.526 511.999 256 511.999V231.048L16.181 115.273Z" fill="#FFC350"/>
<path id="Vector_3" d="M495.819 115.273C496.693 116.604 497.202 118.171 497.202 119.826V392.174C497.202 395.366 495.375 398.276 492.501 399.664L263.232 510.345C260.948 511.448 258.474 512 256 512V231.048L495.819 115.273Z" fill="#FFD164"/>
<path id="Vector_4" d="M83.407 377.657C82.197 377.657 80.962 377.389 79.801 376.829L44.404 359.74C40.262 357.742 38.532 352.771 40.53 348.637C42.52 344.503 47.507 342.781 51.633 344.763L87.03 361.853C91.172 363.851 92.902 368.822 90.904 372.956C89.475 375.927 86.502 377.657 83.407 377.657Z" fill="#FFE17D"/>
<path id="Vector_5" d="M115.986 356.45C114.776 356.45 113.541 356.182 112.38 355.622L44.452 322.832C40.318 320.834 38.58 315.863 40.578 311.729C42.568 307.603 47.563 305.873 51.681 307.855L119.608 340.645C123.742 342.643 125.48 347.614 123.482 351.748C122.054 354.719 119.081 356.45 115.986 356.45Z" fill="#FFF6D8"/>
<path id="Vector_6" d="M414.549 154.373L173.887 38.11L110.447 68.86L351.649 185.303L414.549 154.373Z" fill="#FF8087"/>
<path id="Vector_7" d="M351.649 185.303V275.51C351.649 278.576 354.854 280.588 357.616 279.255L409.848 254.04C412.723 252.652 414.549 249.742 414.549 246.55V154.374L351.649 185.303Z" fill="#E6646E"/>
<g id="pin 1" clip-path="url(#clip1)">
<g id="Group">
<path id="Vector_8" d="M395 220.938C338.729 220.938 293 266.668 293 322.938C293 341.977 298.271 360.508 308.301 376.488L388.086 507.056C389.447 509.266 391.487 510.626 393.867 510.967C397.096 511.476 400.668 510.116 402.537 506.887L482.55 375.127C492.07 359.488 497 341.298 497 322.938C497 266.668 451.271 220.938 395 220.938ZM395 373.938C366.441 373.938 344 350.818 344 322.938C344 294.887 366.949 271.938 395 271.938C423.051 271.938 446 294.887 446 322.938C446 350.647 423.899 373.938 395 373.938Z" fill="#C12020"/>
<path id="Vector_9" d="M395 220.938V271.938C423.051 271.938 446 294.887 446 322.938C446 350.648 423.899 373.938 395 373.938V511.066C397.901 511.133 400.883 509.743 402.537 506.887L482.55 375.128C492.07 359.489 497 341.298 497 322.938C497 266.668 451.271 220.938 395 220.938Z" fill="#C12020"/>
</g>
</g>
</g>
<defs>
<clipPath id="clip0">
<rect width="512" height="512" fill="white"/>
</clipPath>
<clipPath id="clip1">
<rect width="408" height="408" fill="white" transform="translate(293 103)"/>
</clipPath>
</defs>
</svg>
