<svg width="683" height="683" viewBox="0 0 683 683" fill="none" xmlns="http://www.w3.org/2000/svg">
<g id="logout 2">
<g id="logout 1">
<g id="g841">
<g id="g845">
<path id="path847" d="M216.667 681.846C206.301 679.201 35.3243 621.621 30.1591 619.036C22.424 615.164 12.4753 605.562 7.62832 597.289C-0.448556 583.504 -0.00149525 600.216 0.0158223 312.72C0.0289715 94.4249 0.340798 48.8389 1.8599 43.1336C7.34376 22.5377 24.6899 5.82247 45.0656 1.49918C50.0804 0.435146 99.4234 0.00672737 215.066 0.0231591C397.036 0.0490155 387.763 -0.406467 408 9.49982C423.134 16.908 438.443 32.0244 445.642 46.6667C454.402 64.4835 454.801 68.1925 454.377 127.829L454 180.866L450.667 185.788C445.042 194.094 438.32 197.861 428.163 198.402C417.208 198.985 409.334 195.301 403.333 186.786L399.333 181.111L398.667 129.555L398 78L394.667 72.0592C392.833 68.7918 388.732 64.2918 385.553 62.0592L379.773 58L309.553 57.6795L239.333 57.359L246.811 60.4537C262.811 67.0759 272.161 75.7518 279.114 90.4272L283.333 99.3333L283.682 319.715L284.031 540.096L331.903 539.715L379.775 539.333L385.554 535.274C388.733 533.042 392.833 528.542 394.667 525.274L398 519.333L398.667 454C399.253 396.524 399.599 388.186 401.54 384.667C410.689 368.082 434.712 365.069 447.603 378.888C454.629 386.42 454.668 386.863 454.647 457.624C454.625 530.934 454.45 532.738 445.64 550.667C438.445 565.308 423.136 580.424 408 587.834C390.036 596.627 384.701 597.284 331 597.31L284 597.333V616.7C284 632.644 283.529 637.407 281.335 643.648C275.633 659.873 263.114 673.017 247.752 678.909C240.812 681.57 222.403 683.31 216.667 681.846ZM530.68 424.913C524.305 422.882 515.636 413.861 513.64 407.179C512.486 403.316 512 388.605 512 357.512V313.333H454.59C415.045 313.333 395.245 312.846 390.961 311.767C382.133 309.544 372.948 300.175 370.794 291.197C367.65 278.09 373.503 265.479 385.506 259.497L392.524 256H452.262H512L512.008 211.667C512.012 184.845 512.568 165.344 513.414 162.297C517.725 146.772 537.72 138.092 552.58 145.294C556.152 147.026 578.726 168.737 618.778 208.961C683.38 273.841 682.719 273.049 682.638 285.488C682.569 296.092 679.472 299.727 618.268 361.037C574.028 405.354 557.69 420.895 552.739 423.37C545.643 426.917 538.535 427.414 530.68 424.913Z" fill="#0048AF"/>
</g>
</g>
</g>
</g>
</svg>
